#N canvas 0 0 1892 975 10;
#X obj 5 2 cnv 15 734 448 empty empty Parameters\ to\ save 20 12 0
14 -233017 -2049 0;
#X text 176 242 Connections;
#X text 125 51 General operator parameters;
#X text 503 49 Envelope parameters;
#X obj 130 77 save.param \$1 sync;
#X obj 130 99 save.param \$1 fAbs;
#X obj 130 121 save.param \$1 fRatio;
#X obj 130 143 save.param \$1 level;
#X obj 130 165 save.param \$1 active;
#X obj 130 187 save.param \$1 fbAmp;
#X obj 503 71 save.param \$1 EG_L1;
#X obj 503 93 save.param \$1 EG_L2;
#X obj 503 115 save.param \$1 EG_L3;
#X obj 503 137 save.param \$1 EG_L4;
#X obj 503 159 save.param \$1 EG_R1;
#X obj 503 181 save.param \$1 EG_R2;
#X obj 503 203 save.param \$1 EG_R3;
#X obj 503 225 save.param \$1 EG_R4;
#X obj 503 247 save.param \$1 EG_use_velocity;
#X obj 29 275 save.param \$1 out0;
#X obj 29 297 save.param \$1 out1;
#X obj 29 319 save.param \$1 out2;
#X obj 30 342 save.param \$1 out3;
#X obj 29 363 save.param \$1 out4;
#X obj 29 385 save.param \$1 out5;
#X obj 29 407 save.param \$1 out6;
#X obj 221 275 save.param \$1 fb1;
#X obj 221 297 save.param \$1 fb2;
#X obj 221 319 save.param \$1 fb3;
#X obj 221 342 save.param \$1 fb4;
#X obj 221 363 save.param \$1 fb5;
#X obj 221 385 save.param \$1 fb6;
#X text 214 10 Arguments: operator to save;
#X obj 130 210 save.param \$1 fFine;
#X text 503 286 Modwheel parameters;
#X obj 503 308 save.param \$1 mw_tremolo;
#X obj 503 330 save.param \$1 mw_vibrato;
