#N canvas 644 203 498 535 10;
#X obj 263 7 cnv 15 144 77 empty empty Input 20 12 0 14 -135137 -64
0;
#X obj 133 130 cnv 15 298 348 empty empty Output\ test 20 18 0 14 -262113
-258049 0;
#X obj 5 252 tabwrite~ outPlot\$0;
#X obj 5 220 metro 100;
#X obj 158 166 output~;
#N canvas 0 0 450 300 (subpatch) 0;
#X array outPlot\$0 1000 float 0 black black;
#X coords 0 1.2 999 -1.2 250 250 1;
#X restore 158 217 graph;
#X obj 290 177 tgl 15 0 empty outPlot\$0tgl empty 17 7 0 10 -262144
-1 -1 0 1;
#X obj 286 47 inlet~;
#X text 308 176 Toggle test plot;
#X text 284 27 Signal to test;
#X text 6 3 testOutput.pd;
#X text 6 25 Convenient output sink and oscilloscope.;
#X text 6 47 (C) 2017 Frash Pikass;
#X connect 3 0 2 0;
#X connect 6 0 3 0;
#X connect 7 0 2 0;
#X connect 7 0 4 0;
#X connect 7 0 4 1;
#X coords 0 -1 1 1 300 350 2 132 129;
