#N canvas 0 0 1892 975 10;
#X obj 45 237 cnv 15 208 86 empty empty Input 20 12 0 14 -135137 -64
0;
#X obj 124 299 inlet;
#X text 66 273 A MIDI message;
#X obj 46 604 cnv 15 208 86 empty empty Output 20 12 0 14 -135137 -64
0;
#X obj 124 613 outlet~;
#X text 67 640 The sound of this voice;
#X obj 49 722 catch~ trash\$0;
#X obj 639 60 catch~ op1\$0;
#X obj 862 60 catch~ fop1\$0;
#X obj 45 351 cnv 15 353 184 empty empty Input\ conversion 20 12 0
14 -233017 -2049 0;
#X obj 124 393 unpack 0 0;
#X obj 124 433 mtof;
#X text 304 508 Note velocity;
#X floatatom 124 457 5 0 0 0 - - -, f 5;
#X obj 221 490 s mFreq\$0;
#X obj 306 490 s nVel\$0;
#X text 200 508 Main frequency;
#X obj 713 36 r mFreq\$0;
#X obj 787 36 r nVel\$0;
#X obj 124 564 catch~ out\$0;
#X obj 1025 36 r mFreq\$0;
#X obj 1099 36 r nVel\$0;
#X obj 1336 36 r mFreq\$0;
#X obj 1410 36 r nVel\$0;
#X obj 713 755 r mFreq\$0;
#X obj 787 755 r nVel\$0;
#X obj 1025 755 r mFreq\$0;
#X obj 1099 755 r nVel\$0;
#X obj 1336 755 r mFreq\$0;
#X obj 1410 755 r nVel\$0;
#X obj 951 60 catch~ op2\$0;
#X obj 1174 60 catch~ fop2\$0;
#X obj 1262 60 catch~ op3\$0;
#X obj 1485 60 catch~ fop3\$0;
#X obj 639 779 catch~ op4\$0;
#X obj 862 779 catch~ fop4\$0;
#X obj 951 779 catch~ op5\$0;
#X obj 1174 779 catch~ fop5\$0;
#X obj 1262 779 catch~ op6\$0;
#X obj 1485 779 catch~ fop6\$0;
#X text 148 722 This is the trash output from feedback loops;
#X text 206 564 Catching output from operators with "Out to OP#" set
to 0;
#X text 24 71 (C) 2017 Frash Pikass;
#X text 24 1 algorithm.pd;
#X obj 208 784 loadbang;
#X obj 208 806 f \$0;
#X floatatom 208 828 5 0 0 0 - - -, f 5;
#X text 113 828 Abstraction ID:;
#N canvas 936 59 948 1021 routeOutput 0;
#X obj 151 142 inlet~;
#X text 118 118 Receive output signal;
#X obj 332 142 inlet;
#X text 297 118 Receive destinations;
#X obj 49 382 spigot~;
#X obj 129 447 throw~ op1\$0;
#X obj 209 447 throw~ op2\$0;
#X obj 289 447 throw~ op3\$0;
#X obj 369 447 throw~ op4\$0;
#X obj 449 447 throw~ op5\$0;
#X obj 529 447 throw~ op6\$0;
#X obj 49 447 throw~ out\$0;
#X obj 129 382 spigot~;
#X obj 209 382 spigot~;
#X obj 289 382 spigot~;
#X obj 369 382 spigot~;
#X obj 449 382 spigot~;
#X obj 529 382 spigot~;
#X obj 332 192 unpack f f f f f f f;
#X text 26 16 Receive an output signal from an operator and route it
to the input channel of the selected destinations;
#X connect 0 0 4 0;
#X connect 0 0 17 0;
#X connect 0 0 16 0;
#X connect 0 0 15 0;
#X connect 0 0 14 0;
#X connect 0 0 13 0;
#X connect 0 0 12 0;
#X connect 2 0 18 0;
#X connect 4 1 11 0;
#X connect 12 1 5 0;
#X connect 13 1 6 0;
#X connect 14 1 7 0;
#X connect 15 1 8 0;
#X connect 16 1 9 0;
#X connect 17 1 10 0;
#X connect 18 0 4 1;
#X connect 18 1 12 1;
#X connect 18 2 13 1;
#X connect 18 3 14 1;
#X connect 18 4 15 1;
#X connect 18 5 16 1;
#X connect 18 6 17 1;
#X restore 639 661 pd routeOutput;
#N canvas 0 0 1910 1016 routeFeedback 0;
#X obj 157 94 inlet~;
#X text 124 70 Receive output signal;
#X obj 338 94 inlet;
#X obj 55 334 spigot~;
#X obj 143 334 spigot~;
#X obj 231 334 spigot~;
#X obj 319 334 spigot~;
#X obj 407 334 spigot~;
#X obj 495 334 spigot~;
#X text 303 70 Receive feedback destinations;
#X obj 338 144 unpack f f f f f f;
#X obj 55 392 throw~ fop1\$0;
#X obj 143 392 throw~ fop2\$0;
#X obj 231 392 throw~ fop3\$0;
#X obj 319 392 throw~ fop4\$0;
#X obj 407 392 throw~ fop5\$0;
#X obj 495 392 throw~ fop6\$0;
#X text 141 16 Receive an output signal from an operator and route
it to the feedback input of the selected destinations;
#X connect 0 0 3 0;
#X connect 0 0 8 0;
#X connect 0 0 7 0;
#X connect 0 0 6 0;
#X connect 0 0 5 0;
#X connect 0 0 4 0;
#X connect 2 0 10 0;
#X connect 3 1 11 0;
#X connect 4 1 12 0;
#X connect 5 1 13 0;
#X connect 6 1 14 0;
#X connect 7 1 15 0;
#X connect 8 1 16 0;
#X connect 10 0 3 1;
#X connect 10 1 4 1;
#X connect 10 2 5 1;
#X connect 10 3 6 1;
#X connect 10 4 7 1;
#X connect 10 5 8 1;
#X restore 769 661 pd routeFeedback;
#N canvas 952 0 948 983 routeOutput 0;
#X obj 151 142 inlet~;
#X text 118 118 Receive output signal;
#X obj 332 142 inlet;
#X text 297 118 Receive destinations;
#X obj 49 382 spigot~;
#X obj 129 447 throw~ op1\$0;
#X obj 209 447 throw~ op2\$0;
#X obj 289 447 throw~ op3\$0;
#X obj 369 447 throw~ op4\$0;
#X obj 449 447 throw~ op5\$0;
#X obj 529 447 throw~ op6\$0;
#X obj 49 447 throw~ out\$0;
#X obj 129 382 spigot~;
#X obj 209 382 spigot~;
#X obj 289 382 spigot~;
#X obj 369 382 spigot~;
#X obj 449 382 spigot~;
#X obj 529 382 spigot~;
#X obj 332 192 unpack f f f f f f f;
#X text 26 16 Receive an output signal from an operator and route it
to the input channel of the selected destinations;
#X connect 0 0 4 0;
#X connect 0 0 17 0;
#X connect 0 0 16 0;
#X connect 0 0 15 0;
#X connect 0 0 14 0;
#X connect 0 0 13 0;
#X connect 0 0 12 0;
#X connect 2 0 18 0;
#X connect 4 1 11 0;
#X connect 12 1 5 0;
#X connect 13 1 6 0;
#X connect 14 1 7 0;
#X connect 15 1 8 0;
#X connect 16 1 9 0;
#X connect 17 1 10 0;
#X connect 18 0 4 1;
#X connect 18 1 12 1;
#X connect 18 2 13 1;
#X connect 18 3 14 1;
#X connect 18 4 15 1;
#X connect 18 5 16 1;
#X connect 18 6 17 1;
#X restore 951 661 pd routeOutput;
#N canvas 0 0 1910 1016 routeFeedback 0;
#X obj 157 94 inlet~;
#X text 124 70 Receive output signal;
#X obj 338 94 inlet;
#X obj 55 334 spigot~;
#X obj 143 334 spigot~;
#X obj 231 334 spigot~;
#X obj 319 334 spigot~;
#X obj 407 334 spigot~;
#X obj 495 334 spigot~;
#X text 303 70 Receive feedback destinations;
#X obj 338 144 unpack f f f f f f;
#X obj 55 392 throw~ fop1\$0;
#X obj 143 392 throw~ fop2\$0;
#X obj 231 392 throw~ fop3\$0;
#X obj 319 392 throw~ fop4\$0;
#X obj 407 392 throw~ fop5\$0;
#X obj 495 392 throw~ fop6\$0;
#X text 141 16 Receive an output signal from an operator and route
it to the feedback input of the selected destinations;
#X connect 0 0 3 0;
#X connect 0 0 8 0;
#X connect 0 0 7 0;
#X connect 0 0 6 0;
#X connect 0 0 5 0;
#X connect 0 0 4 0;
#X connect 2 0 10 0;
#X connect 3 1 11 0;
#X connect 4 1 12 0;
#X connect 5 1 13 0;
#X connect 6 1 14 0;
#X connect 7 1 15 0;
#X connect 8 1 16 0;
#X connect 10 0 3 1;
#X connect 10 1 4 1;
#X connect 10 2 5 1;
#X connect 10 3 6 1;
#X connect 10 4 7 1;
#X connect 10 5 8 1;
#X restore 1081 661 pd routeFeedback;
#N canvas 952 0 948 983 routeOutput 0;
#X obj 151 142 inlet~;
#X text 118 118 Receive output signal;
#X obj 332 142 inlet;
#X text 297 118 Receive destinations;
#X obj 49 382 spigot~;
#X obj 129 447 throw~ op1\$0;
#X obj 209 447 throw~ op2\$0;
#X obj 289 447 throw~ op3\$0;
#X obj 369 447 throw~ op4\$0;
#X obj 449 447 throw~ op5\$0;
#X obj 529 447 throw~ op6\$0;
#X obj 49 447 throw~ out\$0;
#X obj 129 382 spigot~;
#X obj 209 382 spigot~;
#X obj 289 382 spigot~;
#X obj 369 382 spigot~;
#X obj 449 382 spigot~;
#X obj 529 382 spigot~;
#X obj 332 192 unpack f f f f f f f;
#X text 26 16 Receive an output signal from an operator and route it
to the input channel of the selected destinations;
#X connect 0 0 4 0;
#X connect 0 0 17 0;
#X connect 0 0 16 0;
#X connect 0 0 15 0;
#X connect 0 0 14 0;
#X connect 0 0 13 0;
#X connect 0 0 12 0;
#X connect 2 0 18 0;
#X connect 4 1 11 0;
#X connect 12 1 5 0;
#X connect 13 1 6 0;
#X connect 14 1 7 0;
#X connect 15 1 8 0;
#X connect 16 1 9 0;
#X connect 17 1 10 0;
#X connect 18 0 4 1;
#X connect 18 1 12 1;
#X connect 18 2 13 1;
#X connect 18 3 14 1;
#X connect 18 4 15 1;
#X connect 18 5 16 1;
#X connect 18 6 17 1;
#X restore 1262 661 pd routeOutput;
#N canvas 0 0 1910 1016 routeFeedback 0;
#X obj 157 94 inlet~;
#X text 124 70 Receive output signal;
#X obj 338 94 inlet;
#X obj 55 334 spigot~;
#X obj 143 334 spigot~;
#X obj 231 334 spigot~;
#X obj 319 334 spigot~;
#X obj 407 334 spigot~;
#X obj 495 334 spigot~;
#X text 303 70 Receive feedback destinations;
#X obj 338 144 unpack f f f f f f;
#X obj 55 392 throw~ fop1\$0;
#X obj 143 392 throw~ fop2\$0;
#X obj 231 392 throw~ fop3\$0;
#X obj 319 392 throw~ fop4\$0;
#X obj 407 392 throw~ fop5\$0;
#X obj 495 392 throw~ fop6\$0;
#X text 141 16 Receive an output signal from an operator and route
it to the feedback input of the selected destinations;
#X connect 0 0 3 0;
#X connect 0 0 8 0;
#X connect 0 0 7 0;
#X connect 0 0 6 0;
#X connect 0 0 5 0;
#X connect 0 0 4 0;
#X connect 2 0 10 0;
#X connect 3 1 11 0;
#X connect 4 1 12 0;
#X connect 5 1 13 0;
#X connect 6 1 14 0;
#X connect 7 1 15 0;
#X connect 8 1 16 0;
#X connect 10 0 3 1;
#X connect 10 1 4 1;
#X connect 10 2 5 1;
#X connect 10 3 6 1;
#X connect 10 4 7 1;
#X connect 10 5 8 1;
#X restore 1392 661 pd routeFeedback;
#N canvas 952 0 948 983 routeOutput 0;
#X obj 151 142 inlet~;
#X text 118 118 Receive output signal;
#X obj 332 142 inlet;
#X text 297 118 Receive destinations;
#X obj 49 382 spigot~;
#X obj 129 447 throw~ op1\$0;
#X obj 209 447 throw~ op2\$0;
#X obj 289 447 throw~ op3\$0;
#X obj 369 447 throw~ op4\$0;
#X obj 449 447 throw~ op5\$0;
#X obj 529 447 throw~ op6\$0;
#X obj 49 447 throw~ out\$0;
#X obj 129 382 spigot~;
#X obj 209 382 spigot~;
#X obj 289 382 spigot~;
#X obj 369 382 spigot~;
#X obj 449 382 spigot~;
#X obj 529 382 spigot~;
#X obj 332 192 unpack f f f f f f f;
#X text 26 16 Receive an output signal from an operator and route it
to the input channel of the selected destinations;
#X connect 0 0 4 0;
#X connect 0 0 17 0;
#X connect 0 0 16 0;
#X connect 0 0 15 0;
#X connect 0 0 14 0;
#X connect 0 0 13 0;
#X connect 0 0 12 0;
#X connect 2 0 18 0;
#X connect 4 1 11 0;
#X connect 12 1 5 0;
#X connect 13 1 6 0;
#X connect 14 1 7 0;
#X connect 15 1 8 0;
#X connect 16 1 9 0;
#X connect 17 1 10 0;
#X connect 18 0 4 1;
#X connect 18 1 12 1;
#X connect 18 2 13 1;
#X connect 18 3 14 1;
#X connect 18 4 15 1;
#X connect 18 5 16 1;
#X connect 18 6 17 1;
#X restore 639 1383 pd routeOutput;
#N canvas 0 0 1910 1016 routeFeedback 0;
#X obj 157 94 inlet~;
#X text 124 70 Receive output signal;
#X obj 338 94 inlet;
#X obj 55 334 spigot~;
#X obj 143 334 spigot~;
#X obj 231 334 spigot~;
#X obj 319 334 spigot~;
#X obj 407 334 spigot~;
#X obj 495 334 spigot~;
#X text 303 70 Receive feedback destinations;
#X obj 338 144 unpack f f f f f f;
#X obj 55 392 throw~ fop1\$0;
#X obj 143 392 throw~ fop2\$0;
#X obj 231 392 throw~ fop3\$0;
#X obj 319 392 throw~ fop4\$0;
#X obj 407 392 throw~ fop5\$0;
#X obj 495 392 throw~ fop6\$0;
#X text 141 16 Receive an output signal from an operator and route
it to the feedback input of the selected destinations;
#X connect 0 0 3 0;
#X connect 0 0 8 0;
#X connect 0 0 7 0;
#X connect 0 0 6 0;
#X connect 0 0 5 0;
#X connect 0 0 4 0;
#X connect 2 0 10 0;
#X connect 3 1 11 0;
#X connect 4 1 12 0;
#X connect 5 1 13 0;
#X connect 6 1 14 0;
#X connect 7 1 15 0;
#X connect 8 1 16 0;
#X connect 10 0 3 1;
#X connect 10 1 4 1;
#X connect 10 2 5 1;
#X connect 10 3 6 1;
#X connect 10 4 7 1;
#X connect 10 5 8 1;
#X restore 769 1383 pd routeFeedback;
#N canvas 952 0 948 983 routeOutput 0;
#X obj 151 142 inlet~;
#X text 118 118 Receive output signal;
#X obj 332 142 inlet;
#X text 297 118 Receive destinations;
#X obj 49 382 spigot~;
#X obj 129 447 throw~ op1\$0;
#X obj 209 447 throw~ op2\$0;
#X obj 289 447 throw~ op3\$0;
#X obj 369 447 throw~ op4\$0;
#X obj 449 447 throw~ op5\$0;
#X obj 529 447 throw~ op6\$0;
#X obj 49 447 throw~ out\$0;
#X obj 129 382 spigot~;
#X obj 209 382 spigot~;
#X obj 289 382 spigot~;
#X obj 369 382 spigot~;
#X obj 449 382 spigot~;
#X obj 529 382 spigot~;
#X obj 332 192 unpack f f f f f f f;
#X text 26 16 Receive an output signal from an operator and route it
to the input channel of the selected destinations;
#X connect 0 0 4 0;
#X connect 0 0 17 0;
#X connect 0 0 16 0;
#X connect 0 0 15 0;
#X connect 0 0 14 0;
#X connect 0 0 13 0;
#X connect 0 0 12 0;
#X connect 2 0 18 0;
#X connect 4 1 11 0;
#X connect 12 1 5 0;
#X connect 13 1 6 0;
#X connect 14 1 7 0;
#X connect 15 1 8 0;
#X connect 16 1 9 0;
#X connect 17 1 10 0;
#X connect 18 0 4 1;
#X connect 18 1 12 1;
#X connect 18 2 13 1;
#X connect 18 3 14 1;
#X connect 18 4 15 1;
#X connect 18 5 16 1;
#X connect 18 6 17 1;
#X restore 951 1383 pd routeOutput;
#N canvas 0 0 1910 1016 routeFeedback 0;
#X obj 157 94 inlet~;
#X text 124 70 Receive output signal;
#X obj 338 94 inlet;
#X obj 55 334 spigot~;
#X obj 143 334 spigot~;
#X obj 231 334 spigot~;
#X obj 319 334 spigot~;
#X obj 407 334 spigot~;
#X obj 495 334 spigot~;
#X text 303 70 Receive feedback destinations;
#X obj 338 144 unpack f f f f f f;
#X obj 55 392 throw~ fop1\$0;
#X obj 143 392 throw~ fop2\$0;
#X obj 231 392 throw~ fop3\$0;
#X obj 319 392 throw~ fop4\$0;
#X obj 407 392 throw~ fop5\$0;
#X obj 495 392 throw~ fop6\$0;
#X text 141 16 Receive an output signal from an operator and route
it to the feedback input of the selected destinations;
#X connect 0 0 3 0;
#X connect 0 0 8 0;
#X connect 0 0 7 0;
#X connect 0 0 6 0;
#X connect 0 0 5 0;
#X connect 0 0 4 0;
#X connect 2 0 10 0;
#X connect 3 1 11 0;
#X connect 4 1 12 0;
#X connect 5 1 13 0;
#X connect 6 1 14 0;
#X connect 7 1 15 0;
#X connect 8 1 16 0;
#X connect 10 0 3 1;
#X connect 10 1 4 1;
#X connect 10 2 5 1;
#X connect 10 3 6 1;
#X connect 10 4 7 1;
#X connect 10 5 8 1;
#X restore 1081 1383 pd routeFeedback;
#N canvas 952 0 948 983 routeOutput 0;
#X obj 151 142 inlet~;
#X text 118 118 Receive output signal;
#X obj 332 142 inlet;
#X text 297 118 Receive destinations;
#X obj 49 382 spigot~;
#X obj 129 447 throw~ op1\$0;
#X obj 209 447 throw~ op2\$0;
#X obj 289 447 throw~ op3\$0;
#X obj 369 447 throw~ op4\$0;
#X obj 449 447 throw~ op5\$0;
#X obj 529 447 throw~ op6\$0;
#X obj 49 447 throw~ out\$0;
#X obj 129 382 spigot~;
#X obj 209 382 spigot~;
#X obj 289 382 spigot~;
#X obj 369 382 spigot~;
#X obj 449 382 spigot~;
#X obj 529 382 spigot~;
#X obj 332 192 unpack f f f f f f f;
#X text 26 16 Receive an output signal from an operator and route it
to the input channel of the selected destinations;
#X connect 0 0 4 0;
#X connect 0 0 17 0;
#X connect 0 0 16 0;
#X connect 0 0 15 0;
#X connect 0 0 14 0;
#X connect 0 0 13 0;
#X connect 0 0 12 0;
#X connect 2 0 18 0;
#X connect 4 1 11 0;
#X connect 12 1 5 0;
#X connect 13 1 6 0;
#X connect 14 1 7 0;
#X connect 15 1 8 0;
#X connect 16 1 9 0;
#X connect 17 1 10 0;
#X connect 18 0 4 1;
#X connect 18 1 12 1;
#X connect 18 2 13 1;
#X connect 18 3 14 1;
#X connect 18 4 15 1;
#X connect 18 5 16 1;
#X connect 18 6 17 1;
#X restore 1262 1383 pd routeOutput;
#N canvas 0 0 1910 1016 routeFeedback 0;
#X obj 157 94 inlet~;
#X text 124 70 Receive output signal;
#X obj 338 94 inlet;
#X obj 55 334 spigot~;
#X obj 143 334 spigot~;
#X obj 231 334 spigot~;
#X obj 319 334 spigot~;
#X obj 407 334 spigot~;
#X obj 495 334 spigot~;
#X text 303 70 Receive feedback destinations;
#X obj 338 144 unpack f f f f f f;
#X obj 55 392 throw~ fop1\$0;
#X obj 143 392 throw~ fop2\$0;
#X obj 231 392 throw~ fop3\$0;
#X obj 319 392 throw~ fop4\$0;
#X obj 407 392 throw~ fop5\$0;
#X obj 495 392 throw~ fop6\$0;
#X text 141 16 Receive an output signal from an operator and route
it to the feedback input of the selected destinations;
#X connect 0 0 3 0;
#X connect 0 0 8 0;
#X connect 0 0 7 0;
#X connect 0 0 6 0;
#X connect 0 0 5 0;
#X connect 0 0 4 0;
#X connect 2 0 10 0;
#X connect 3 1 11 0;
#X connect 4 1 12 0;
#X connect 5 1 13 0;
#X connect 6 1 14 0;
#X connect 7 1 15 0;
#X connect 8 1 16 0;
#X connect 10 0 3 1;
#X connect 10 1 4 1;
#X connect 10 2 5 1;
#X connect 10 3 6 1;
#X connect 10 4 7 1;
#X connect 10 5 8 1;
#X restore 1392 1383 pd routeFeedback;
#X obj 639 90 OP 1;
#X obj 951 90 OP 2;
#X obj 1262 90 OP 3;
#X obj 639 809 OP 4;
#X obj 951 809 OP 5;
#X obj 1262 810 OP 6;
#X obj 292 73 tools/testInput;
#X obj 292 831 tools/testOutput;
#X text 24 22 Abstraction that represents an FM patch. It can help
to represent and play any FM synth algorithm like the ones of Yamaha
DX7;
#X connect 1 0 10 0;
#X connect 7 0 60 0;
#X connect 8 0 60 3;
#X connect 10 0 11 0;
#X connect 10 1 15 0;
#X connect 11 0 13 0;
#X connect 11 0 14 0;
#X connect 17 0 60 1;
#X connect 18 0 60 2;
#X connect 19 0 4 0;
#X connect 19 0 67 0;
#X connect 20 0 61 1;
#X connect 21 0 61 2;
#X connect 22 0 62 1;
#X connect 23 0 62 2;
#X connect 24 0 63 1;
#X connect 25 0 63 2;
#X connect 26 0 64 1;
#X connect 27 0 64 2;
#X connect 28 0 65 1;
#X connect 29 0 65 2;
#X connect 30 0 61 0;
#X connect 31 0 61 3;
#X connect 32 0 62 0;
#X connect 33 0 62 3;
#X connect 34 0 63 0;
#X connect 35 0 63 3;
#X connect 36 0 64 0;
#X connect 37 0 64 3;
#X connect 38 0 65 0;
#X connect 39 0 65 3;
#X connect 44 0 45 0;
#X connect 45 0 46 0;
#X connect 60 0 48 0;
#X connect 60 0 49 0;
#X connect 60 1 48 1;
#X connect 60 2 49 1;
#X connect 61 0 50 0;
#X connect 61 0 51 0;
#X connect 61 1 50 1;
#X connect 61 2 51 1;
#X connect 62 0 52 0;
#X connect 62 0 53 0;
#X connect 62 1 52 1;
#X connect 62 2 53 1;
#X connect 63 0 54 0;
#X connect 63 0 55 0;
#X connect 63 1 54 1;
#X connect 63 2 55 1;
#X connect 64 0 56 0;
#X connect 64 0 57 0;
#X connect 64 1 56 1;
#X connect 64 2 57 1;
#X connect 65 0 58 0;
#X connect 65 0 59 0;
#X connect 65 1 58 1;
#X connect 65 2 59 1;
#X connect 66 0 10 0;
