#N canvas 483 108 948 656 10;
#X obj 283 115 cnv 15 277 67 empty empty Parameters\ (alternative\ input)
20 12 0 14 -135137 -66577 0;
#X obj 41 270 cnv 15 139 67 empty empty Output 20 50 0 14 -135137 -2112
0;
#X obj 41 80 cnv 15 161 102 empty empty Input 20 12 0 14 -135137 -2112
0;
#X text 8 2 EGrate.pd;
#X obj 305 142 r \$1;
#X obj 338 142 r \$2;
#X obj 371 142 r \$3;
#X floatatom 63 272 10 0 0 0 - - -, f 10;
#X floatatom 63 146 5 0 99 0 - - -, f 5;
#X floatatom 102 146 5 0 99 0 - - -, f 5;
#X floatatom 141 146 5 0 99 0 - - -, f 5;
#X obj 225 185 t b;
#X obj 63 117 inlet;
#X obj 102 117 inlet;
#X obj 141 117 inlet;
#X obj 63 293 outlet;
#X text 63 98 L0;
#X text 100 98 L1;
#X text 139 98 R1;
#X text 8 24 Receives two levels and a rate in input \, outputs the
delay time for [vline~];
#X floatatom 64 484 10 0 0 0 - - -, f 10;
#X obj 64 442 bng 15 250 50 0 empty empty empty 17 7 0 10 -262144 -1
-1;
#X obj 64 462 expr log(10);
#X floatatom 161 484 10 0 0 0 - - -, f 10;
#X obj 161 462 expr log(40000);
#X text 32 482 minv;
#X text 230 485 maxv;
#X text 57 423 range y;
#X msg 313 465 0;
#X text 313 446 minp;
#X text 366 446 maxp;
#X msg 367 465 99;
#X floatatom 148 620 10 0 0 0 - - -, f 10;
#X obj 148 578 bng 15 250 50 0 empty empty empty 17 7 0 10 -262144
-1 -1;
#X text 110 619 scale;
#X obj 148 599 expr ($f3-$f2)/99;
#X text 303 428 range x' = 99 - x;
#X text 148 361 Levels are increasing (faster):;
#X floatatom 484 472 10 0 0 0 - - -, f 10;
#X obj 484 430 bng 15 250 50 0 empty empty empty 17 7 0 10 -262144
-1 -1;
#X obj 484 493 exp;
#X floatatom 484 515 5 0 0 0 - - -, f 5;
#X obj 484 450 expr log(10);
#X floatatom 581 472 10 0 0 0 - - -, f 10;
#X obj 581 493 exp;
#X floatatom 581 515 5 0 0 0 - - -, f 5;
#X text 449 470 minv;
#X text 650 474 maxv;
#X text 480 407 range y;
#X msg 733 449 0;
#X text 733 430 minp;
#X text 786 430 maxp;
#X msg 787 449 99;
#X floatatom 568 608 10 0 0 0 - - -, f 10;
#X obj 568 566 bng 15 250 50 0 empty empty empty 17 7 0 10 -262144
-1 -1;
#X text 532 608 scale;
#X obj 568 587 expr ($f3-$f2)/99;
#X text 721 417 range x' = 99 - x;
#X text 561 364 Levels are decreasing (slower):;
#X obj 581 450 expr log(180000);
#X text 321 333 Tool to calculate logarithmic scale values;
#X obj 63 224 expr (($f1 < $f2) * exp(2.30259 + 0.0837783 * (99 - $f3)))
+ (($f1 >= $f2) * exp(2.30259 + 0.098971 * (99 - $f3))) - 10;
#X text 432 228 Logarithmic scaling logic;
#X text 8 59 (C) 2017 Frash Pikass;
#X connect 4 0 11 0;
#X connect 4 0 61 0;
#X connect 5 0 11 0;
#X connect 5 0 61 1;
#X connect 6 0 11 0;
#X connect 6 0 61 2;
#X connect 7 0 15 0;
#X connect 8 0 61 0;
#X connect 9 0 11 0;
#X connect 9 0 61 1;
#X connect 10 0 11 0;
#X connect 10 0 61 2;
#X connect 11 0 61 0;
#X connect 12 0 8 0;
#X connect 13 0 9 0;
#X connect 14 0 10 0;
#X connect 20 0 35 1;
#X connect 20 0 33 0;
#X connect 21 0 22 0;
#X connect 21 0 24 0;
#X connect 22 0 20 0;
#X connect 23 0 35 2;
#X connect 23 0 33 0;
#X connect 24 0 23 0;
#X connect 33 0 35 0;
#X connect 35 0 32 0;
#X connect 38 0 40 0;
#X connect 38 0 56 1;
#X connect 38 0 54 0;
#X connect 39 0 42 0;
#X connect 39 0 59 0;
#X connect 40 0 41 0;
#X connect 42 0 38 0;
#X connect 43 0 44 0;
#X connect 43 0 56 2;
#X connect 43 0 54 0;
#X connect 44 0 45 0;
#X connect 54 0 56 0;
#X connect 56 0 53 0;
#X connect 59 0 43 0;
#X connect 61 0 7 0;
