#N canvas 0 0 1892 975 10;
#X obj 503 23 cnv 15 1438 898 empty empty empty 20 12 0 14 -135137
-66577 0;
#X obj 822 829 cnv 15 928 62 empty empty empty 20 12 0 14 -1 -66577
0;
#X obj 822 570 cnv 15 1104 253 empty empty empty 20 12 0 14 -1 -64
0;
#X obj 823 571 cnv 15 1102 251 empty empty Load\ a\ well\ known\ algorithm
20 12 0 14 -2112 -184320 0;
#X obj 828 597 cnv 15 1092 186 empty empty empty 20 12 0 14 -184320
-66577 0;
#X obj -26 125 notein;
#X obj -26 207 pack 0 0 0;
#X floatatom -155 206 5 0 0 0 - - -, f 5;
#X floatatom -111 206 5 0 0 0 - - -, f 5;
#X floatatom -68 206 5 0 0 0 - - -, f 5;
#X text 29 125 Read the note from MIDI;
#X obj -26 426 +~;
#X obj 516 570 tools/testOutput;
#X obj -26 171 poly 16 0;
#X obj -26 256 route 1 2 3 4 5 6 7 8 9 10 11 12 13 14 15 16, f 67
;
#X obj -26 284 algorithm;
#X obj -16 294 algorithm;
#X obj -6 304 algorithm;
#X obj 4 314 algorithm;
#X obj 14 324 algorithm;
#X obj 24 334 algorithm;
#X obj 34 344 algorithm;
#X obj 44 354 algorithm;
#X obj 173 324 algorithm;
#X obj 183 334 algorithm;
#X obj 193 344 algorithm;
#X obj 203 354 algorithm;
#X obj 213 364 algorithm;
#X obj 223 374 algorithm;
#X obj 233 384 algorithm;
#X obj 243 394 algorithm;
#X text -123 11 interface.pd;
#X text -123 33 reads messages from MIDI \, routes them to 16 voices
\, provides an external interface to control the FM operators;
#X text -123 68 (C) 2017 Frash Pikass;
#X floatatom 1356 795 5 1 32 0 Choice: loadAlgr loadAlg, f 5;
#X obj 635 973 loadbang;
#X msg 662 1050 \; loadAlgr 1 \;;
#X obj 823 1062 route 1 2 3 4 5 6 7 8 9 10 11 12 13 14 15 16 17 18
19 20 21 22 23 24 25 26 27 28 29 30 31 32, f 175;
#X obj 838 1016 r loadAlg;
#X obj 823 1039 f 1;
#X obj 823 993 r loadAlgBng;
#X obj 1927 1795 bng 15 250 50 0 empty empty empty 17 7 0 10 -262144
-1 -1;
#X obj 1950 1795 bng 15 250 50 0 empty empty empty 17 7 0 10 -262144
-1 -1;
#X obj 1973 1795 bng 15 250 50 0 empty empty empty 17 7 0 10 -262144
-1 -1;
#X obj 1996 1795 bng 15 250 50 0 empty empty empty 17 7 0 10 -262144
-1 -1;
#X obj 2019 1795 bng 15 250 50 0 empty empty empty 17 7 0 10 -262144
-1 -1;
#X obj 2042 1795 bng 15 250 50 0 empty empty empty 17 7 0 10 -262144
-1 -1;
#X obj 2065 1795 bng 15 250 50 0 empty empty empty 17 7 0 10 -262144
-1 -1;
#X obj 2088 1795 bng 15 250 50 0 empty empty empty 17 7 0 10 -262144
-1 -1;
#X obj 2111 1795 bng 15 250 50 0 empty empty empty 17 7 0 10 -262144
-1 -1;
#X obj 2134 1795 bng 15 250 50 0 empty empty empty 17 7 0 10 -262144
-1 -1;
#X obj 2157 1795 bng 15 250 50 0 empty empty empty 17 7 0 10 -262144
-1 -1;
#X obj 2180 1795 bng 15 250 50 0 empty empty empty 17 7 0 10 -262144
-1 -1;
#X obj 2203 1795 bng 15 250 50 0 empty empty empty 17 7 0 10 -262144
-1 -1;
#X obj 2226 1795 bng 15 250 50 0 empty empty empty 17 7 0 10 -262144
-1 -1;
#X obj 2249 1795 bng 15 250 50 0 empty empty empty 17 7 0 10 -262144
-1 -1;
#X obj 2272 1795 bng 15 250 50 0 empty empty empty 17 7 0 10 -262144
-1 -1;
#X obj 635 995 t b b;
#X text 562 955 Load the default algorithm at start;
#X obj 1696 33 OP 6;
#X obj 1460 33 OP 5;
#X obj 1224 33 OP 4;
#X obj 988 33 OP 3;
#X obj 752 33 OP 2;
#X obj 516 33 OP 1;
#X obj 823 830 cnv 15 926 60 empty empty empty 20 12 0 14 -261682 -66577
0;
#X obj 889 865 bng 20 250 50 0 \$0-save.s \$0-save.r save 22 7 0 10
-261234 -1 -1;
#X obj 828 865 bng 20 250 50 0 \$0-load.s \$0-load.r load 22 7 0 10
-204786 -1 -1;
#X obj 828 835 cnv 15 916 20 \$0-preset.name.s \$0-preset.name.r PRESET_FILE:no_preset_loaded
5 10 0 10 -86853 -261682 0;
#N canvas 460 68 948 809 presets 1;
#X text 374 -435 SEND: \$0-<parameter_name>.s;
#X text 374 -415 RECEIVE: \$0-<parameter_name>.r;
#X text 374 -525 In order for a parameter that is in the parent patch
to be saved in the preset file \, here there needs to be a 'save.param'
abstraction with the name of that parameter as the second argument
(whilst the first argument is always \$0). The send and receive symbols
for each parameter must be formated in this way:;
#X text 374 -385 With this method you still have to create a new 'save.param'
abstraction for every parameter to be saved in the presets \, but at
least there is no need to patch all the send and receives.;
#X obj 11 -524 cnv 15 320 180 empty empty empty 20 12 0 14 -261234
-66577 0;
#X obj 11 -334 cnv 15 320 350 empty empty empty 20 12 0 14 -204786
-66577 0;
#X obj 21 -114 textfile;
#X obj 21 -194 until;
#X obj 21 -324 r \$0-load.s;
#X obj 21 -521 r \$0-save.s;
#X obj 21 -304 openpanel;
#X obj 127 -98 s \$0-stop.loop;
#X obj 48 -214 r \$0-stop.loop;
#X msg 40 -264 read \$1 \, rewind;
#X msg 151 -247 label \$1;
#X obj 21 -284 t b s s;
#X msg 55 -452 clear;
#X obj 151 -227 s \$0-preset.name.r;
#X obj 21 -501 savepanel;
#X msg 161 -452 write \$1;
#X msg 21 -409 write \$1;
#X obj 151 -307 loadbang;
#X obj 151 -287 symbol no_preset_loaded;
#X obj 151 -267 makefilename PRESET_FILE:%s;
#X obj 21 -80 list prepend \$0;
#X msg 21 -34 \; \$2.r \$3 \;;
#N canvas 830 350 762 533 getValues 1;
#X obj 101 30 inlet;
#X obj 220 110 s 1-get.values;
#X obj 220 137 s 2-get.values;
#X obj 220 164 s 3-get.values;
#X obj 220 191 s 4-get.values;
#X obj 220 218 s 5-get.values;
#X obj 220 245 s 6-get.values;
#X obj 429 123 tools/save.operator 1;
#X obj 429 145 tools/save.operator 2;
#X obj 429 167 tools/save.operator 3;
#X obj 429 189 tools/save.operator 4;
#X obj 429 211 tools/save.operator 5;
#X obj 429 233 tools/save.operator 6;
#X text 429 101 Parameter declarations;
#X obj 101 299 outlet;
#X obj 101 74 t s b b b b b b;
#X obj 429 287 tools/save.param 1 mw_lfo_max_f;
#X obj 429 309 tools/save.param 1 mw_lfo_max_a;
#X text 429 265 Parameter declarations for Modwheel;
#X connect 0 0 15 0;
#X connect 15 0 14 0;
#X connect 15 1 6 0;
#X connect 15 2 5 0;
#X connect 15 3 4 0;
#X connect 15 4 3 0;
#X connect 15 5 2 0;
#X connect 15 6 1 0;
#X restore 21 -433 pd getValues;
#X obj 21 -476 t s b s;
#X obj 21 -379 s to.textfile;
#X obj 21 -167 s to.textfile;
#X obj 21 -145 r to.textfile;
#X connect 6 0 24 0;
#X connect 6 1 11 0;
#X connect 7 0 29 0;
#X connect 8 0 10 0;
#X connect 9 0 18 0;
#X connect 10 0 15 0;
#X connect 12 0 7 1;
#X connect 13 0 29 0;
#X connect 14 0 17 0;
#X connect 15 0 7 0;
#X connect 15 1 13 0;
#X connect 15 2 23 0;
#X connect 16 0 28 0;
#X connect 18 0 27 0;
#X connect 19 0 28 0;
#X connect 20 0 28 0;
#X connect 21 0 22 0;
#X connect 22 0 23 0;
#X connect 23 0 14 0;
#X connect 24 0 25 0;
#X connect 26 0 20 0;
#X connect 27 0 26 0;
#X connect 27 1 16 0;
#X connect 27 2 19 0;
#X connect 30 0 6 0;
#X restore 423 901 pd presets;
#X obj 1442 793 bng 20 250 50 0 loadAlgBng empty Load: -31 7 0 10 -262144
-1 -184320;
#X msg -147 1228 // Algorithm 1 \; 1-destination.r 1 0 0 0 0 0 0 \;
1-fbLoop.r 0 0 0 0 0 0 \; 2-destination.r 0 1 0 0 0 0 0 \; 2-fbLoop.r
0 0 0 0 0 0 \; 3-destination.r 1 0 0 0 0 0 0 \; 3-fbLoop.r 0 0 0 0
0 0 \; 4-destination.r 0 0 0 3 0 0 0 \; 4-fbLoop.r 0 0 0 0 0 0 \; 5-destination.r
0 0 0 0 4 0 0 \; 5-fbLoop.r 0 0 0 0 0 0 \; 6-destination.r 0 0 0 0
0 5 0 \; 6-fbLoop.r 0 0 0 0 0 6 \;;
#X msg 43 1228 // Algorithm 2 \; 1-destination.r 1 0 0 0 0 0 0 \; 1-fbLoop.r
0 0 0 0 0 0 \; 2-destination.r 0 1 0 0 0 0 0 \; 2-fbLoop.r 0 2 0 0
0 0 \; 3-destination.r 1 0 0 0 0 0 0 \; 3-fbLoop.r 0 0 0 0 0 0 \; 4-destination.r
0 0 0 3 0 0 0 \; 4-fbLoop.r 0 0 0 0 0 0 \; 5-destination.r 0 0 0 0
4 0 0 \; 5-fbLoop.r 0 0 0 0 0 0 \; 6-destination.r 0 0 0 0 0 5 0 \;
6-fbLoop.r 0 0 0 0 0 0 \;;
#X msg 233 1228 // Algorithm 3 \; 1-destination.r 1 0 0 0 0 0 0 \;
1-fbLoop.r 0 0 0 0 0 0 \; 2-destination.r 0 1 0 0 0 0 0 \; 2-fbLoop.r
0 0 0 0 0 0 \; 3-destination.r 0 0 2 0 0 0 0 \; 3-fbLoop.r 0 0 0 0
0 0 \; 4-destination.r 1 0 0 0 0 0 0 \; 4-fbLoop.r 0 0 0 0 0 0 \; 5-destination.r
0 0 0 0 4 0 0 \; 5-fbLoop.r 0 0 0 0 0 0 \; 6-destination.r 0 0 0 0
0 5 0 \; 6-fbLoop.r 0 0 0 0 0 6 \;;
#X msg 423 1228 // Algorithm 4 \; 1-destination.r 1 0 0 0 0 0 0 \;
1-fbLoop.r 0 0 0 0 0 0 \; 2-destination.r 0 1 0 0 0 0 0 \; 2-fbLoop.r
0 0 0 0 0 0 \; 3-destination.r 0 0 2 0 0 0 0 \; 3-fbLoop.r 0 0 0 0
0 0 \; 4-destination.r 1 0 0 0 0 0 0 \; 4-fbLoop.r 0 0 0 0 0 6 \; 5-destination.r
0 0 0 0 4 0 0 \; 5-fbLoop.r 0 0 0 0 0 0 \; 6-destination.r 0 0 0 0
0 5 0 \; 6-fbLoop.r 0 0 0 0 0 0 \;;
#X msg 613 1228 // Algorithm 5 \; 1-destination.r 1 0 0 0 0 0 0 \;
1-fbLoop.r 0 0 0 0 0 0 \; 2-destination.r 0 1 0 0 0 0 0 \; 2-fbLoop.r
0 0 0 0 0 0 \; 3-destination.r 1 0 0 0 0 0 0 \; 3-fbLoop.r 0 0 0 0
0 0 \; 4-destination.r 0 0 0 3 0 0 0 \; 4-fbLoop.r 0 0 0 0 0 0 \; 5-destination.r
1 0 0 0 0 0 0 \; 5-fbLoop.r 0 0 0 0 0 0 \; 6-destination.r 0 0 0 0
0 5 0 \; 6-fbLoop.r 0 0 0 0 0 6 \;;
#X msg 803 1228 // Algorithm 6 \; 1-destination.r 1 0 0 0 0 0 0 \;
1-fbLoop.r 0 0 0 0 0 0 \; 2-destination.r 0 1 0 0 0 0 0 \; 2-fbLoop.r
0 0 0 0 0 0 \; 3-destination.r 1 0 0 0 0 0 0 \; 3-fbLoop.r 0 0 0 0
0 0 \; 4-destination.r 0 0 0 3 0 0 0 \; 4-fbLoop.r 0 0 0 0 0 0 \; 5-destination.r
1 0 0 0 0 0 0 \; 5-fbLoop.r 0 0 0 0 0 6 \; 6-destination.r 0 0 0 0
0 5 0 \; 6-fbLoop.r 0 0 0 0 0 0 \;;
#X msg 993 1228 // Algorithm 7 \; 1-destination.r 1 0 0 0 0 0 0 \;
1-fbLoop.r 0 0 0 0 0 0 \; 2-destination.r 0 1 0 0 0 0 0 \; 2-fbLoop.r
0 0 0 0 0 0 \; 3-destination.r 1 0 0 0 0 0 0 \; 3-fbLoop.r 0 0 0 0
0 0 \; 4-destination.r 0 0 0 3 0 0 0 \; 4-fbLoop.r 0 0 0 0 0 0 \; 5-destination.r
0 0 0 3 0 0 0 \; 5-fbLoop.r 0 0 0 0 0 0 \; 6-destination.r 0 0 0 0
0 5 0 \; 6-fbLoop.r 0 0 0 0 0 6 \;;
#X msg 1183 1228 // Algorithm 8 \; 1-destination.r 1 0 0 0 0 0 0 \;
1-fbLoop.r 0 0 0 0 0 0 \; 2-destination.r 0 1 0 0 0 0 0 \; 2-fbLoop.r
0 0 0 0 0 0 \; 3-destination.r 1 0 0 0 0 0 0 \; 3-fbLoop.r 0 0 0 0
0 0 \; 4-destination.r 0 0 0 3 0 0 0 \; 4-fbLoop.r 0 0 0 4 0 0 \; 5-destination.r
0 0 0 3 0 0 0 \; 5-fbLoop.r 0 0 0 4 0 0 \; 6-destination.r 0 0 0 0
0 5 0 \; 6-fbLoop.r 0 0 0 0 0 0 \;;
#X msg 1373 1228 // Algorithm 9 \; 1-destination.r 1 0 0 0 0 0 0 \;
1-fbLoop.r 0 0 0 0 0 0 \; 2-destination.r 0 1 0 0 0 0 0 \; 2-fbLoop.r
0 2 0 0 0 0 \; 3-destination.r 1 0 0 0 0 0 0 \; 3-fbLoop.r 0 0 0 0
0 0 \; 4-destination.r 0 0 0 3 0 0 0 \; 4-fbLoop.r 0 0 0 0 0 0 \; 5-destination.r
0 0 0 3 0 0 0 \; 5-fbLoop.r 0 0 0 0 0 0 \; 6-destination.r 0 0 0 0
0 5 0 \; 6-fbLoop.r 0 0 0 0 0 0 \;;
#X msg 1563 1228 // Algorithm 10 \; 1-destination.r 1 0 0 0 0 0 0 \;
1-fbLoop.r 0 0 0 0 0 0 \; 2-destination.r 0 1 0 0 0 0 0 \; 2-fbLoop.r
0 0 0 0 0 0 \; 3-destination.r 0 0 2 0 0 0 0 \; 3-fbLoop.r 0 0 3 0
0 0 \; 4-destination.r 1 0 0 0 0 0 0 \; 4-fbLoop.r 0 0 0 0 0 0 \; 5-destination.r
0 0 0 0 4 0 0 \; 5-fbLoop.r 0 0 0 0 0 0 \; 6-destination.r 0 0 0 0
4 0 0 \; 6-fbLoop.r 0 0 0 0 0 0 \;;
#X msg 1753 1228 // Algorithm 11 \; 1-destination.r 1 0 0 0 0 0 0 \;
1-fbLoop.r 0 0 0 0 0 0 \; 2-destination.r 0 1 0 0 0 0 0 \; 2-fbLoop.r
0 0 0 0 0 0 \; 3-destination.r 0 0 2 0 0 0 0 \; 3-fbLoop.r 0 0 0 0
0 0 \; 4-destination.r 1 0 0 0 0 0 0 \; 4-fbLoop.r 0 0 0 0 0 0 \; 5-destination.r
0 0 0 0 4 0 0 \; 5-fbLoop.r 0 0 0 0 0 6 \; 6-destination.r 0 0 0 0
4 0 0 \; 6-fbLoop.r 0 0 0 0 0 6 \;;
#X msg 1943 1228 // Algorithm 12 \; 1-destination.r 1 0 0 0 0 0 0 \;
1-fbLoop.r 0 0 0 0 0 0 \; 2-destination.r 0 1 0 0 0 0 0 \; 2-fbLoop.r
0 2 0 0 0 0 \; 3-destination.r 1 0 0 0 0 0 0 \; 3-fbLoop.r 0 0 0 0
0 0 \; 4-destination.r 0 0 0 3 0 0 0 \; 4-fbLoop.r 0 0 0 0 0 0 \; 5-destination.r
0 0 0 3 0 0 0 \; 5-fbLoop.r 0 0 0 0 0 0 \; 6-destination.r 0 0 0 3
0 0 0 \; 6-fbLoop.r 0 0 0 0 0 0 \;;
#X msg 2133 1228 // Algorithm 13 \; 1-destination.r 1 0 0 0 0 0 0 \;
1-fbLoop.r 0 0 0 0 0 0 \; 2-destination.r 0 1 0 0 0 0 0 \; 2-fbLoop.r
0 0 0 0 0 0 \; 3-destination.r 1 0 0 0 0 0 0 \; 3-fbLoop.r 0 0 0 0
0 0 \; 4-destination.r 0 0 0 3 0 0 0 \; 4-fbLoop.r 0 0 0 0 0 6 \; 5-destination.r
0 0 0 3 0 0 0 \; 5-fbLoop.r 0 0 0 0 0 6 \; 6-destination.r 0 0 0 3
0 0 0 \; 6-fbLoop.r 0 0 0 0 0 6 \;;
#X msg 2323 1228 // Algorithm 14 \; 1-destination.r 1 0 0 0 0 0 0 \;
1-fbLoop.r 0 0 0 0 0 0 \; 2-destination.r 0 1 0 0 0 0 0 \; 2-fbLoop.r
0 0 0 0 0 0 \; 3-destination.r 1 0 0 0 0 0 0 \; 3-fbLoop.r 0 0 0 0
0 0 \; 4-destination.r 0 0 0 3 0 0 0 \; 4-fbLoop.r 0 0 0 0 0 0 \; 5-destination.r
0 0 0 0 4 0 0 \; 5-fbLoop.r 0 0 0 0 0 6 \; 6-destination.r 0 0 0 0
4 0 0 \; 6-fbLoop.r 0 0 0 0 0 6 \;;
#X msg 2513 1228 // Algorithm 15 \; 1-destination.r 1 0 0 0 0 0 0 \;
1-fbLoop.r 0 0 0 0 0 0 \; 2-destination.r 0 1 0 0 0 0 0 \; 2-fbLoop.r
0 2 0 0 0 0 \; 3-destination.r 1 0 0 0 0 0 0 \; 3-fbLoop.r 0 0 0 0
0 0 \; 4-destination.r 0 0 0 3 0 0 0 \; 4-fbLoop.r 0 0 0 0 0 0 \; 5-destination.r
0 0 0 0 4 0 0 \; 5-fbLoop.r 0 0 0 0 0 0 \; 6-destination.r 0 0 0 0
4 0 0 \; 6-fbLoop.r 0 0 0 0 0 0 \;;
#X msg 2703 1228 // Algorithm 16 \; 1-destination.r 1 0 0 0 0 0 0 \;
1-fbLoop.r 0 0 0 0 0 0 \; 2-destination.r 0 1 0 0 0 0 0 \; 2-fbLoop.r
0 0 0 0 0 0 \; 3-destination.r 0 1 0 0 0 0 0 \; 3-fbLoop.r 0 0 0 0
0 0 \; 4-destination.r 0 0 0 3 0 0 0 \; 4-fbLoop.r 0 0 0 0 0 0 \; 5-destination.r
0 1 0 0 0 0 0 \; 5-fbLoop.r 0 0 0 0 0 0 \; 6-destination.r 0 0 0 0
0 5 0 \; 6-fbLoop.r 0 0 0 0 0 6 \;;
#X msg -147 1490 // Algorithm 17 \; 1-destination.r 1 0 0 0 0 0 0 \;
1-fbLoop.r 0 0 0 0 0 0 \; 2-destination.r 0 1 0 0 0 0 0 \; 2-fbLoop.r
0 2 0 0 0 0 \; 3-destination.r 0 1 0 0 0 0 0 \; 3-fbLoop.r 0 2 0 0
0 0 \; 4-destination.r 0 0 0 3 0 0 0 \; 4-fbLoop.r 0 0 0 0 0 0 \; 5-destination.r
0 1 0 0 0 0 0 \; 5-fbLoop.r 0 2 0 0 0 0 \; 6-destination.r 0 0 0 0
0 5 0 \; 6-fbLoop.r 0 0 0 0 0 0 \;;
#X msg 42 1490 // Algorithm 18 \; 1-destination.r 1 0 0 0 0 0 0 \;
1-fbLoop.r 0 0 0 0 0 0 \; 2-destination.r 0 1 0 0 0 0 0 \; 2-fbLoop.r
0 0 3 0 0 0 \; 3-destination.r 0 1 0 0 0 0 0 \; 3-fbLoop.r 0 0 3 0
0 0 \; 4-destination.r 0 1 0 0 0 0 0 \; 4-fbLoop.r 0 0 3 0 0 0 \; 5-destination.r
0 0 0 0 4 0 0 \; 5-fbLoop.r 0 0 0 0 0 0 \; 6-destination.r 0 0 0 0
0 5 0 \; 6-fbLoop.r 0 0 0 0 0 0 \;;
#X msg 231 1490 // Algorithm 19 \; 1-destination.r 1 0 0 0 0 0 0 \;
1-fbLoop.r 0 0 0 0 0 0 \; 2-destination.r 0 1 0 0 0 0 0 \; 2-fbLoop.r
0 0 0 0 0 0 \; 3-destination.r 0 0 2 0 0 0 0 \; 3-fbLoop.r 0 0 0 0
0 0 \; 4-destination.r 1 0 0 0 0 0 0 \; 4-fbLoop.r 0 0 0 0 0 0 \; 5-destination.r
1 0 0 0 0 0 0 \; 5-fbLoop.r 0 0 0 0 0 0 \; 6-destination.r 0 0 0 0
4 5 0 \; 6-fbLoop.r 0 0 0 0 0 6 \;;
#X msg 420 1490 // Algorithm 20 \; 1-destination.r 1 0 0 0 0 0 0 \;
1-fbLoop.r 0 0 0 0 0 0 \; 2-destination.r 1 0 0 0 0 0 0 \; 2-fbLoop.r
0 0 0 0 0 0 \; 3-destination.r 0 1 2 0 0 0 0 \; 3-fbLoop.r 0 0 3 0
0 0 \; 4-destination.r 1 0 0 0 0 0 0 \; 4-fbLoop.r 0 0 0 0 0 0 \; 5-destination.r
0 0 0 0 4 0 0 \; 5-fbLoop.r 0 0 0 0 0 0 \; 6-destination.r 0 0 0 0
4 0 0 \; 6-fbLoop.r 0 0 0 0 0 0 \;;
#X msg 609 1490 // Algorithm 21 \; 1-destination.r 1 0 0 0 0 0 0 \;
1-fbLoop.r 0 0 0 0 0 0 \; 2-destination.r 1 0 0 0 0 0 0 \; 2-fbLoop.r
0 0 0 0 0 0 \; 3-destination.r 0 1 2 0 0 0 0 \; 3-fbLoop.r 0 0 3 0
0 0 \; 4-destination.r 1 0 0 0 0 0 0 \; 4-fbLoop.r 0 0 0 0 0 0 \; 5-destination.r
1 0 0 0 0 0 0 \; 5-fbLoop.r 0 0 0 0 0 0 \; 6-destination.r 0 0 0 0
4 5 0 \; 6-fbLoop.r 0 0 0 0 0 0 \;;
#X msg 798 1490 // Algorithm 22 \; 1-destination.r 1 0 0 0 0 0 0 \;
1-fbLoop.r 0 0 0 0 0 0 \; 2-destination.r 0 1 0 0 0 0 0 \; 2-fbLoop.r
0 0 0 0 0 0 \; 3-destination.r 1 0 0 0 0 0 0 \; 3-fbLoop.r 0 0 0 0
0 0 \; 4-destination.r 1 0 0 0 0 0 0 \; 4-fbLoop.r 0 0 0 0 0 0 \; 5-destination.r
1 0 0 0 0 0 0 \; 5-fbLoop.r 0 0 0 0 0 0 \; 6-destination.r 0 0 0 3
4 5 0 \; 6-fbLoop.r 0 0 0 0 0 0 \;;
#X msg 987 1490 // Algorithm 23 \; 1-destination.r 1 0 0 0 0 0 0 \;
1-fbLoop.r 0 0 0 0 0 0 \; 2-destination.r 1 0 0 0 0 0 0 \; 2-fbLoop.r
0 0 0 0 0 0 \; 3-destination.r 0 0 2 0 0 0 0 \; 3-fbLoop.r 0 0 0 0
0 0 \; 4-destination.r 1 0 0 0 0 0 0 \; 4-fbLoop.r 0 0 0 0 0 0 \; 5-destination.r
1 0 0 0 0 0 0 \; 5-fbLoop.r 0 0 0 0 0 0 \; 6-destination.r 0 0 0 0
4 5 0 \; 6-fbLoop.r 0 0 0 0 0 6 \;;
#X msg 1176 1490 // Algorithm 24 \; 1-destination.r 1 0 0 0 0 0 0 \;
1-fbLoop.r 0 0 0 0 0 0 \; 2-destination.r 1 0 0 0 0 0 0 \; 2-fbLoop.r
0 0 0 0 0 0 \; 3-destination.r 1 0 0 0 0 0 0 \; 3-fbLoop.r 0 0 0 0
0 0 \; 4-destination.r 1 0 0 0 0 0 0 \; 4-fbLoop.r 0 0 0 0 0 0 \; 5-destination.r
1 0 0 0 0 0 0 \; 5-fbLoop.r 0 0 0 0 0 0 \; 6-destination.r 0 0 0 3
4 5 0 \; 6-fbLoop.r 0 0 0 0 0 6 \;;
#X msg 1365 1490 // Algorithm 25 \; 1-destination.r 1 0 0 0 0 0 0 \;
1-fbLoop.r 0 0 0 0 0 0 \; 2-destination.r 1 0 0 0 0 0 0 \; 2-fbLoop.r
0 0 0 0 0 0 \; 3-destination.r 1 0 0 0 0 0 0 \; 3-fbLoop.r 0 0 0 0
0 0 \; 4-destination.r 1 0 0 0 0 0 0 \; 4-fbLoop.r 0 0 0 0 0 0 \; 5-destination.r
1 0 0 0 0 0 0 \; 5-fbLoop.r 0 0 0 0 0 0 \; 6-destination.r 0 0 0 0
4 5 0 \; 6-fbLoop.r 0 0 0 0 0 6 \;;
#X msg 1554 1490 // Algorithm 26 \; 1-destination.r 1 0 0 0 0 0 0 \;
1-fbLoop.r 0 0 0 0 0 0 \; 2-destination.r 1 0 0 0 0 0 0 \; 2-fbLoop.r
0 0 0 0 0 0 \; 3-destination.r 0 0 2 0 0 0 0 \; 3-fbLoop.r 0 0 0 0
0 0 \; 4-destination.r 1 0 0 0 0 0 0 \; 4-fbLoop.r 0 0 0 0 0 0 \; 5-destination.r
0 0 0 0 4 0 0 \; 5-fbLoop.r 0 0 0 0 0 6 \; 6-destination.r 0 0 0 0
4 0 0 \; 6-fbLoop.r 0 0 0 0 0 6 \;;
#X msg 1743 1490 // Algorithm 27 \; 1-destination.r 1 0 0 0 0 0 0 \;
1-fbLoop.r 0 0 0 0 0 0 \; 2-destination.r 1 0 0 0 0 0 0 \; 2-fbLoop.r
0 0 0 0 0 0 \; 3-destination.r 0 0 2 0 0 0 0 \; 3-fbLoop.r 0 0 3 0
0 0 \; 4-destination.r 1 0 0 0 0 0 0 \; 4-fbLoop.r 0 0 0 0 0 0 \; 5-destination.r
0 0 0 0 4 0 0 \; 5-fbLoop.r 0 0 0 0 0 0 \; 6-destination.r 0 0 0 0
4 0 0 \; 6-fbLoop.r 0 0 0 0 0 0 \;;
#X msg 1932 1490 // Algorithm 28 \; 1-destination.r 1 0 0 0 0 0 0 \;
1-fbLoop.r 0 0 0 0 0 0 \; 2-destination.r 0 1 0 0 0 0 0 \; 2-fbLoop.r
0 0 0 0 0 0 \; 3-destination.r 1 0 0 0 0 0 0 \; 3-fbLoop.r 0 0 0 0
0 0 \; 4-destination.r 0 0 0 3 0 0 0 \; 4-fbLoop.r 0 0 0 0 0 0 \; 5-destination.r
0 0 0 0 4 0 0 \; 5-fbLoop.r 0 0 0 0 5 0 \; 6-destination.r 1 0 0 0
0 0 0 \; 6-fbLoop.r 0 0 0 0 0 0 \;;
#X msg 2121 1490 // Algorithm 29 \; 1-destination.r 1 0 0 0 0 0 0 \;
1-fbLoop.r 0 0 0 0 0 0 \; 2-destination.r 1 0 0 0 0 0 0 \; 2-fbLoop.r
0 0 0 0 0 0 \; 3-destination.r 1 0 0 0 0 0 0 \; 3-fbLoop.r 0 0 0 0
0 0 \; 4-destination.r 0 0 0 3 0 0 0 \; 4-fbLoop.r 0 0 0 0 0 0 \; 5-destination.r
1 0 0 0 0 0 0 \; 5-fbLoop.r 0 0 0 0 0 0 \; 6-destination.r 0 0 0 0
0 5 0 \; 6-fbLoop.r 0 0 0 0 0 6 \;;
#X msg 2310 1490 // Algorithm 30 \; 1-destination.r 1 0 0 0 0 0 0 \;
1-fbLoop.r 0 0 0 0 0 0 \; 2-destination.r 0 1 0 0 0 0 0 \; 2-fbLoop.r
0 0 0 0 0 0 \; 3-destination.r 1 0 0 0 0 0 0 \; 3-fbLoop.r 0 0 0 0
0 0 \; 4-destination.r 0 0 0 3 0 0 0 \; 4-fbLoop.r 0 0 0 0 0 0 \; 5-destination.r
0 0 0 0 4 0 0 \; 5-fbLoop.r 0 0 0 0 5 0 \; 6-destination.r 1 0 0 0
0 0 0 \; 6-fbLoop.r 0 0 0 0 0 0 \;;
#X msg 2499 1490 // Algorithm 31 \; 1-destination.r 1 0 0 0 0 0 0 \;
1-fbLoop.r 0 0 0 0 0 0 \; 2-destination.r 1 0 0 0 0 0 0 \; 2-fbLoop.r
0 0 0 0 0 0 \; 3-destination.r 1 0 0 0 0 0 0 \; 3-fbLoop.r 0 0 0 0
0 0 \; 4-destination.r 1 0 0 0 0 0 0 \; 4-fbLoop.r 0 0 0 0 0 0 \; 5-destination.r
1 0 0 0 0 0 0 \; 5-fbLoop.r 0 0 0 0 0 0 \; 6-destination.r 0 0 0 0
0 5 0 \; 6-fbLoop.r 0 0 0 0 0 6 \;;
#X msg 2688 1490 // Algorithm 32 \; 1-destination.r 1 0 0 0 0 0 0 \;
1-fbLoop.r 0 0 0 0 0 0 \; 2-destination.r 1 0 0 0 0 0 0 \; 2-fbLoop.r
0 0 0 0 0 0 \; 3-destination.r 1 0 0 0 0 0 0 \; 3-fbLoop.r 0 0 0 0
0 0 \; 4-destination.r 1 0 0 0 0 0 0 \; 4-fbLoop.r 0 0 0 0 0 0 \; 5-destination.r
1 0 0 0 0 0 0 \; 5-fbLoop.r 0 0 0 0 0 0 \; 6-destination.r 1 0 0 0
0 0 0 \; 6-fbLoop.r 0 0 0 0 0 6 \;;
#X obj 1373 689 image algs1.png 0;
#X obj 2120 496 ctlin;
#X floatatom 2182 513 5 0 0 0 - - -, f 5;
#X floatatom 2224 513 5 0 0 0 - - -, f 5;
#X floatatom 2266 513 5 0 0 0 - - -, f 5;
#X obj 2134 532 expr ( ($i1 == 1) && ($i2 == 3) );
#X obj 2120 562 spigot;
#X floatatom 2064 579 5 0 0 0 - - -, f 5;
#X text 2179 496 Reading the modwheel;
#X obj 2120 715 osc~;
#X obj 2120 657 expr $f1 * $f2 / 127;
#X obj 2252 657 expr $f1 * $f2 / 127;
#X obj 2220 596 t b;
#X floatatom 2120 679 5 0 0 0 - - -, f 5;
#X floatatom 2252 679 5 0 0 0 - - -, f 5;
#X obj 2269 640 f 1;
#X text 2162 561 Filtering out the modwheel;
#X obj 2128 640 f 10;
#X text 2166 638 LFO frequency;
#X text 2295 639 LFO amplitude;
#X text 43 170 Multiplexing and routing the note to the various voices
;
#X text -138 329 16 playable voices;
#X text 294 901 Save and load logic:;
#X obj 1757 829 modwheel 1;
#X connect 5 0 13 0;
#X connect 5 1 13 1;
#X connect 6 0 14 0;
#X connect 11 0 12 0;
#X connect 13 0 6 0;
#X connect 13 0 7 0;
#X connect 13 1 6 1;
#X connect 13 1 8 0;
#X connect 13 2 6 2;
#X connect 13 2 9 0;
#X connect 14 0 15 0;
#X connect 14 1 16 0;
#X connect 14 2 17 0;
#X connect 14 3 18 0;
#X connect 14 4 19 0;
#X connect 14 5 20 0;
#X connect 14 6 21 0;
#X connect 14 7 22 0;
#X connect 14 8 23 0;
#X connect 14 9 24 0;
#X connect 14 10 25 0;
#X connect 14 11 26 0;
#X connect 14 12 27 0;
#X connect 14 13 28 0;
#X connect 14 14 29 0;
#X connect 14 15 30 0;
#X connect 15 0 11 0;
#X connect 16 0 11 0;
#X connect 17 0 11 0;
#X connect 18 0 11 0;
#X connect 19 0 11 0;
#X connect 20 0 11 0;
#X connect 21 0 11 0;
#X connect 22 0 11 0;
#X connect 23 0 11 0;
#X connect 24 0 11 0;
#X connect 25 0 11 0;
#X connect 26 0 11 0;
#X connect 27 0 11 0;
#X connect 28 0 11 0;
#X connect 29 0 11 0;
#X connect 30 0 11 0;
#X connect 35 0 57 0;
#X connect 37 0 71 0;
#X connect 37 1 72 0;
#X connect 37 2 73 0;
#X connect 37 3 74 0;
#X connect 37 4 75 0;
#X connect 37 5 76 0;
#X connect 37 6 77 0;
#X connect 37 7 78 0;
#X connect 37 8 79 0;
#X connect 37 9 80 0;
#X connect 37 10 81 0;
#X connect 37 11 82 0;
#X connect 37 12 83 0;
#X connect 37 13 84 0;
#X connect 37 14 85 0;
#X connect 37 15 86 0;
#X connect 37 16 87 0;
#X connect 37 17 88 0;
#X connect 37 18 89 0;
#X connect 37 19 90 0;
#X connect 37 20 91 0;
#X connect 37 21 92 0;
#X connect 37 22 93 0;
#X connect 37 23 94 0;
#X connect 37 24 95 0;
#X connect 37 25 96 0;
#X connect 37 26 97 0;
#X connect 37 27 98 0;
#X connect 37 28 99 0;
#X connect 37 29 100 0;
#X connect 37 30 101 0;
#X connect 37 31 102 0;
#X connect 38 0 39 1;
#X connect 39 0 37 0;
#X connect 40 0 39 0;
#X connect 57 0 39 0;
#X connect 57 1 36 0;
#X connect 104 0 105 0;
#X connect 104 0 109 0;
#X connect 104 1 106 0;
#X connect 104 1 108 0;
#X connect 104 2 107 0;
#X connect 104 2 108 1;
#X connect 108 0 109 1;
#X connect 109 0 110 0;
#X connect 109 0 113 0;
#X connect 109 0 114 0;
#X connect 109 0 115 0;
#X connect 113 0 116 0;
#X connect 114 0 117 0;
#X connect 115 0 118 0;
#X connect 115 0 120 0;
#X connect 116 0 112 0;
#X connect 118 0 114 1;
#X connect 120 0 113 1;
#X coords 0 -1 1 1 1440 900 2 502 22;
