#N canvas 326 72 1062 835 10;
#X obj 162 624 cnv 15 488 158 empty empty empty 20 12 0 14 -135137
-66577 0;
#X obj 508 188 cnv 15 292 85 empty empty Wheels 8 6 0 14 -248534 -64
0;
#X obj 657 200 cnv 15 133 67 empty empty Mod 13 6 0 12 -252960 -64
0;
#X obj 188 200 ctlin;
#X floatatom 47 217 5 0 0 0 - - -, f 5;
#X floatatom 89 217 5 0 0 0 - - -, f 5;
#X floatatom 131 217 5 0 0 0 - - -, f 5;
#X obj 188 266 spigot;
#X floatatom 132 283 5 0 0 0 - - -, f 5;
#X text 44 200 Reading the modwheel;
#X obj 188 645 osc~;
#X obj 188 508 expr $f1 * $f2 / 127;
#X text 230 265 Filtering out the modwheel;
#X text 195 472 LFO frequency;
#X text 9 -3 modwheel.pd;
#X text 9 13 Sketch to handle modwheel control and its interface;
#X text 6 31 (c) 2018 Frash Pikass;
#X floatatom 662 217 5 0 0 0 - #1-mw_lfo_max_f.r #1-mw_lfo_max_f.s
, f 5;
#X floatatom 662 238 5 0 0 0 - #1-mw_lfo_max_a.r #1-mw_lfo_max_a.s
, f 5;
#X obj 510 44 loadbang;
#X obj 510 92 f 30;
#X obj 575 44 bng 15 250 50 0 empty empty empty 17 7 0 10 -262144 -1
-1;
#X obj 510 114 s \$1-mw_lfo_max_f.r;
#X obj 634 114 s \$1-mw_lfo_max_a.r;
#X floatatom 527 429 5 0 0 0 - - -, f 5;
#X floatatom 653 429 5 0 0 0 - - -, f 5;
#X obj 488 377 r \$1-mw_lfo_max_f.s;
#X obj 614 377 r \$1-mw_lfo_max_a.s;
#X floatatom 314 525 5 0 0 0 - - -, f 5;
#X text 832 205 8-8-8-8-8-8-8-8--8-8--8-8-8--8-8-8-8;
#X text 507 21 default values;
#X text 7 57 Parameters: \$1 = modwheel number;
#X text 509 631 Outputs (not outlets);
#X obj 188 721 send~ mw_lfo;
#X obj 634 92 f 0.5;
#X obj 488 354 r \$1-mw_lfo_max_f.r;
#X obj 614 354 r \$1-mw_lfo_max_a.r;
#X obj 488 429 t b f;
#X obj 614 429 t b f;
#X text 189 742 LFO for Tremolo;
#X obj 414 721 s~ mw_lfo_vibrato;
#X text 414 742 LFO for Vibrato;
#X obj 414 689 expr~ ($f2 > 0)*$v1;
#X obj 111 441 vline~;
#X obj 42 386 t b;
#X obj 111 386 t b;
#X obj 42 356 moses 1;
#X text 7 442 Click reduction;
#X obj 188 689 expr~ $v3*$v1 + (1-$v3);
#X obj 42 408 pack 0 150;
#X obj 111 408 pack 1 150;
#X obj 518 207 cnv 15 133 39 empty empty Pitch\ bend 13 6 0 12 -252960
-64 0;
#X text 696 217 Max f (Hz);
#X text 696 238 Vibrato depth;
#X text 696 250 (semitones);
#X floatatom 523 225 5 0 48 0 - #1-pw_depth.r #1-pw_depth.s, f 5;
#X text 559 225 Max semitones;
#X obj 410 92 f 2;
#X obj 410 114 s \$1-pw_depth.r;
#X floatatom 588 252 5 0 0 0 Mod:Ctl-Chan #1-mw_ctl.r #1-mw_ctl.s,
f 5;
#X floatatom 622 252 5 0 0 0 - #1-mw_ch.r #1-mw_ch.s, f 5;
#X obj 202 236 expr ( ($i1 == $i3) && ($i2 == $i4) );
#X obj 760 92 i 1;
#X obj 851 92 i 3;
#X obj 760 114 s \$1-mw_ctl.r;
#X obj 851 114 s \$1-mw_ch.r;
#X obj 334 153 r \$1-mw_ctl.s;
#X obj 334 175 r \$1-mw_ctl.r;
#X obj 421 152 r \$1-mw_ch.s;
#X obj 421 174 r \$1-mw_ch.r;
#X connect 3 0 4 0;
#X connect 3 0 7 0;
#X connect 3 1 5 0;
#X connect 3 1 61 0;
#X connect 3 2 6 0;
#X connect 3 2 61 1;
#X connect 7 0 8 0;
#X connect 7 0 11 0;
#X connect 7 0 42 1;
#X connect 7 0 46 0;
#X connect 7 0 48 1;
#X connect 10 0 42 0;
#X connect 10 0 48 0;
#X connect 11 0 28 0;
#X connect 11 0 10 0;
#X connect 19 0 20 0;
#X connect 19 0 34 0;
#X connect 19 0 57 0;
#X connect 19 0 62 0;
#X connect 19 0 63 0;
#X connect 20 0 22 0;
#X connect 21 0 20 0;
#X connect 21 0 34 0;
#X connect 21 0 57 0;
#X connect 21 0 62 0;
#X connect 21 0 63 0;
#X connect 26 0 24 0;
#X connect 26 0 37 0;
#X connect 27 0 25 0;
#X connect 27 0 38 0;
#X connect 34 0 23 0;
#X connect 35 0 37 0;
#X connect 36 0 38 0;
#X connect 37 0 11 0;
#X connect 37 1 11 1;
#X connect 38 0 11 0;
#X connect 42 0 40 0;
#X connect 43 0 48 2;
#X connect 44 0 49 0;
#X connect 45 0 50 0;
#X connect 46 0 44 0;
#X connect 46 1 45 0;
#X connect 48 0 33 0;
#X connect 49 0 43 0;
#X connect 50 0 43 0;
#X connect 57 0 58 0;
#X connect 61 0 7 1;
#X connect 62 0 64 0;
#X connect 63 0 65 0;
#X connect 66 0 61 2;
#X connect 67 0 61 2;
#X connect 68 0 61 3;
#X connect 69 0 61 3;
#X coords 0 -1 1 1 294 87 1 507 187;
