#N canvas 195 0 1502 975 10;
#X obj 610 310 cnv 15 228 529 empty empty OPERATOR\ \$1 20 12 0 14
-260160 -64 0;
#X obj 634 651 cnv 15 194 78 empty empty empty 20 12 0 14 -131136 -66577
0;
#X obj 634 594 cnv 15 194 45 empty empty empty 20 12 0 14 -131136 -66577
0;
#X obj 628 645 cnv 15 194 78 empty empty Base\ frequency\ &\ Output
20 12 0 12 -260928 -258112 0;
#X obj 635 742 cnv 15 194 95 empty empty empty 20 12 0 14 -131136 -66577
0;
#X obj 628 735 cnv 15 194 95 empty empty Algorithm\ wiring 20 12 0
12 -260928 -258112 0;
#X obj 1174 287 cnv 15 256 50 empty empty Handle\ connections 20 12
0 14 -233017 -2049 0;
#X obj 634 512 cnv 15 194 70 empty empty empty 20 12 0 14 -131136 -66577
0;
#X obj 634 340 cnv 15 194 160 empty empty empty 20 12 0 14 -131136
-66577 0;
#X obj 29 426 cnv 15 126 59 empty empty HEART\ <3 20 12 0 14 -258049
-262144 0;
#X obj 28 778 cnv 15 455 93 empty empty Outputs 20 12 0 14 -135137
-64 0;
#X obj 1174 27 cnv 15 256 254 empty empty Load/reset\ defaults 20 12
0 14 -233017 -2049 0;
#X obj 628 506 cnv 15 194 70 empty empty Input\ amplification 20 12
0 12 -260928 -258112 0;
#X obj 632 530 cnv 15 183 20 empty empty OR 81 8 0 14 -261632 -66577
0;
#X obj 29 11 cnv 15 670 104 empty empty Inputs 20 12 0 14 -135137 -64
0;
#X obj 42 454 osc~;
#X text 879 759 OP.pd - An FM operator inspired by Yamaha DX7;
#X obj 42 814 outlet~;
#X obj 628 334 EG \$1;
#X obj 638 533 tgl 15 0 \$1-sync.s \$1-sync.r empty 17 7 0 10 -262144
-1 -1 1 1;
#X floatatom 764 533 5 0 0 0 - - -, f 5;
#X floatatom 764 533 5 0 0 0 - #1-fAbs.r #1-fAbs.s, f 5;
#X obj 776 705 tgl 15 0 \$1-active.s \$1-active.r ON 16 6 0 10 -262144
-1 -1 0 1;
#X floatatom 740 705 5 0 99 0 Level #1-level.r #1-level.s, f 5;
#X obj 42 63 inlet~;
#X text 40 44 IN1: Modulator signal;
#X text 322 44 IN2: Main freq;
#X text 437 44 IN3: note velocity;
#X obj 322 63 inlet;
#X obj 441 63 inlet;
#X obj 776 670 bng 15 250 50 0 resetRatio\$0 empty reset 15 6 0 8 -262144
-1 -1;
#X obj 1193 75 r resetRatio\$0;
#X obj 1193 97 t b;
#X obj 1193 119 1;
#X text 1193 55 Reset Modulator/Main ratio with btn;
#X text 1175 7 Backend logic;
#X obj 42 683 *~;
#X text 74 453 Oscillator;
#X text 664 287 Frontend (Interface);
#X obj 321 531 / 100;
#X obj 147 301 t b f;
#X obj 252 301 t b f;
#X text 45 301 $v1;
#X floatatom 190 335 5 0 0 0 - - -, f 5;
#X floatatom 306 335 5 0 0 0 - - -, f 5;
#X obj 866 339 tools/testOutput;
#X text 879 777 (C) 2017 Frash Pikass;
#X obj 866 11 tools/testInput;
#X obj 3 756 s~ outputTestPlot\$0;
#X obj 866 313 r~ outputTestPlot\$0;
#X floatatom 470 90 5 0 0 0 - - -, f 5;
#X floatatom 1135 302 5 0 0 0 - - -, f 5;
#X floatatom 1085 302 5 0 0 0 - - -, f 5;
#X floatatom 740 669 5 0 31 0 - #1-fRatio.r #1-fRatio.s, f 5;
#X text 797 533 Hz;
#X floatatom 780 553 5 0 0 0 - #1-fbAmp.r #1-fbAmp.s, f 5;
#X text 630 553 Feedback input amplitude;
#X obj 462 306 t b f;
#X floatatom 489 340 5 0 0 0 - - -, f 5;
#X obj 128 814 outlet;
#X text 40 833 Out1: signal;
#X text 128 833 Out2: send to this OP;
#X text 272 833 Out3: send to this feedback loop;
#X obj 272 814 outlet;
#X text 567 44 IN4: Feedback signal;
#X obj 567 63 inlet~;
#X obj 706 782 tgl 15 0 \$1-out1.s \$1-out1.r 1 5 -8 0 10 -262144 -1
-1 0 1;
#X obj 725 782 tgl 15 0 \$1-out2.s \$1-out2.r 2 5 -8 0 10 -262144 -1
-1 0 1;
#X obj 744 782 tgl 15 0 \$1-out3.s \$1-out3.r 3 5 -8 0 10 -262144 -1
-1 0 1;
#X obj 763 782 tgl 15 0 \$1-out4.s \$1-out4.r 4 5 -8 0 10 -262144 -1
-1 0 1;
#X obj 782 782 tgl 15 0 \$1-out5.s \$1-out5.r 5 5 -8 0 10 -262144 -1
-1 0 1;
#X obj 801 782 tgl 15 0 \$1-out6.s \$1-out6.r 6 5 -8 0 10 -262144 -1
-1 0 1;
#X obj 687 782 tgl 15 0 \$1-out0.s \$1-out0.r OUT -2 -8 0 10 -262144
-1 -1 0 1;
#X obj 706 800 tgl 15 0 \$1-fb1.s \$1-fb1.r 1 5 20 0 10 -262144 -1
-1 0 6;
#X obj 725 800 tgl 15 0 \$1-fb2.s \$1-fb2.r 2 5 20 0 10 -262144 -1
-1 0 1;
#X obj 744 800 tgl 15 0 \$1-fb3.s \$1-fb3.r 3 5 20 0 10 -262144 -1
-1 0 1;
#X obj 763 800 tgl 15 0 \$1-fb4.s \$1-fb4.r 4 5 20 0 10 -262144 -1
-1 0 1;
#X obj 782 800 tgl 15 0 \$1-fb5.s \$1-fb5.r 5 5 20 0 10 -262144 -1
-1 0 1;
#X obj 801 800 tgl 15 0 \$1-fb6.s \$1-fb6.r 6 5 20 0 10 -262144 -1
-1 0 1;
#N canvas 891 52 948 998 connectionmanager 0;
#X obj 255 -642 pack f f f f f f f;
#X obj 249 -543 unpack f f f f f f f;
#X obj 75 -707 t b f;
#X obj 149 -707 t b f;
#X obj 223 -707 t b f;
#X obj 297 -707 t b f;
#X obj 371 -707 t b f;
#X obj 445 -707 t b f;
#X obj 519 -707 t b f;
#X obj 60 -380 t b f;
#X obj 131 -380 t b f;
#X obj 202 -380 t b f;
#X obj 273 -380 t b f;
#X obj 344 -380 t b f;
#X obj 415 -380 t b f;
#X obj 238 -330 pack f f f f f f;
#X obj 238 -221 unpack f f f f f f;
#X text 60 -799 Manage connections: update the state of connections
whenever a configuration is loaded or saved;
#X obj 255 -617 s \$1-destination.s;
#X obj 249 -572 r \$1-destination.r;
#X obj 238 -308 s \$1-fbLoop.s;
#X obj 238 -252 r \$1-fbLoop.r;
#X obj 75 -739 r \$1-out0.s;
#X obj 149 -739 r \$1-out1.s;
#X obj 223 -739 r \$1-out2.s;
#X obj 297 -739 r \$1-out3.s;
#X obj 371 -739 r \$1-out4.s;
#X obj 445 -739 r \$1-out5.s;
#X obj 519 -739 r \$1-out6.s;
#X obj 91 -506 s \$1-out0.r;
#X obj 165 -506 s \$1-out1.r;
#X obj 239 -506 s \$1-out2.r;
#X obj 313 -506 s \$1-out3.r;
#X obj 387 -506 s \$1-out4.r;
#X obj 461 -506 s \$1-out5.r;
#X obj 535 -506 s \$1-out6.r;
#X obj 60 -407 r \$1-fb1.s;
#X obj 131 -407 r \$1-fb2.s;
#X obj 202 -407 r \$1-fb3.s;
#X obj 273 -407 r \$1-fb4.s;
#X obj 344 -407 r \$1-fb5.s;
#X obj 415 -407 r \$1-fb6.s;
#X obj 88 -123 s \$1-fb1.r;
#X obj 159 -123 s \$1-fb2.r;
#X obj 230 -123 s \$1-fb3.r;
#X obj 301 -123 s \$1-fb4.r;
#X obj 372 -123 s \$1-fb5.r;
#X obj 443 -123 s \$1-fb6.r;
#X connect 0 0 18 0;
#X connect 1 0 29 0;
#X connect 1 1 30 0;
#X connect 1 2 31 0;
#X connect 1 3 32 0;
#X connect 1 4 33 0;
#X connect 1 5 34 0;
#X connect 1 6 35 0;
#X connect 2 0 0 0;
#X connect 2 1 0 0;
#X connect 3 0 0 0;
#X connect 3 1 0 1;
#X connect 4 0 0 0;
#X connect 4 1 0 2;
#X connect 5 0 0 0;
#X connect 5 1 0 3;
#X connect 6 0 0 0;
#X connect 6 1 0 4;
#X connect 7 0 0 0;
#X connect 7 1 0 5;
#X connect 8 0 0 0;
#X connect 8 1 0 6;
#X connect 9 0 15 0;
#X connect 9 1 15 0;
#X connect 10 0 15 0;
#X connect 10 1 15 1;
#X connect 11 0 15 0;
#X connect 11 1 15 2;
#X connect 12 0 15 0;
#X connect 12 1 15 3;
#X connect 13 0 15 0;
#X connect 13 1 15 4;
#X connect 14 0 15 0;
#X connect 14 1 15 5;
#X connect 15 0 20 0;
#X connect 16 0 42 0;
#X connect 16 1 43 0;
#X connect 16 2 44 0;
#X connect 16 3 45 0;
#X connect 16 4 46 0;
#X connect 16 5 47 0;
#X connect 19 0 1 0;
#X connect 21 0 16 0;
#X connect 22 0 2 0;
#X connect 23 0 3 0;
#X connect 24 0 4 0;
#X connect 25 0 5 0;
#X connect 26 0 6 0;
#X connect 27 0 7 0;
#X connect 28 0 8 0;
#X connect 36 0 9 0;
#X connect 37 0 10 0;
#X connect 38 0 11 0;
#X connect 39 0 12 0;
#X connect 40 0 13 0;
#X connect 41 0 14 0;
#X restore 1233 314 pd connectionmanager;
#X obj 1303 205 loadbang;
#X obj 1303 229 1;
#X obj 1196 205 loadbang;
#X obj 1196 229 1;
#X text 1196 183 Load some defaults;
#X obj 1196 250 s \$1-sync.r;
#X obj 147 240 r \$1-sync.r;
#X obj 154 263 r \$1-sync.s;
#X obj 252 240 r \$1-fAbs.r;
#X obj 259 265 r \$1-fAbs.s;
#X obj 1303 251 s \$1-fRatio.r;
#X obj 321 512 r \$1-level.s;
#X obj 1193 141 s \$1-fRatio.r;
#X obj 228 537 r \$1-active.s;
#X obj 462 245 r \$1-fbAmp.r;
#X obj 469 268 r \$1-fbAmp.s;
#X obj 128 732 r \$1-destination.r;
#X obj 272 731 r \$1-fbLoop.r;
#X obj 282 755 r \$1-fbLoop.s;
#X obj 139 755 r \$1-destination.s;
#X floatatom 740 687 5 0 0 0 f.Fine #1-fFine.r #1-fFine.s, f 5;
#X text 629 800 Feedback ->;
#X text 629 782 Input ->;
#X text 652 533 In*fBase;
#X text 742 533 In*;
#X text 629 754 Send op output to these lines:;
#X text 670 668 fBase/fMain;
#X obj 628 588 cnv 15 194 45 empty empty Modwheel 20 12 0 12 -260928
-258112 0;
#X obj 648 613 tgl 15 0 \$1-mw_tremolo.s \$1-mw_tremolo.r Tremolo 17
7 0 10 -262144 -1 -1 0 1;
#X obj 720 613 tgl 15 0 \$1-mw_vibrato.s \$1-mw_vibrato.r Vibrato 17
7 0 10 -262144 -1 -1 0 1;
#X text 633 704 Output:;
#N canvas 815 28 982 894 fBase 0;
#X obj 406 -3734 cnv 15 480 83 empty empty Outputs 20 12 0 14 -135137
-64 0;
#X obj 417 -4327 cnv 15 204 79 empty empty Inputs 20 12 0 14 -135137
-64 0;
#X obj 504 -4271 inlet;
#X text 689 -4133 fFine;
#X obj 689 -4112 r \$1-fFine.s;
#X obj 689 -4087 r \$1-fFine.r;
#X obj 689 -4062 t b;
#X obj 504 -3972 pitchbendwheel;
#X obj 768 -3901 *~;
#X text 774 -4021 Modwheel LFO;
#X obj 504 -3997 +;
#X text 454 -4302 Main Frequency;
#X text 499 -4289 (fMain);
#X obj 489 -3699 outlet~;
#X obj 307 -4117 t b f;
#X obj 307 -4159 r \$1-fRatio.r;
#X obj 307 -4138 r \$1-fRatio.s;
#X obj 504 -4028 *;
#X text 307 -4180 fBase/fMain ratio;
#X text 536 -3699 fBase = fMain*fRatio + fFine + pitchbend + depth*LFO
;
#X text 420 -3972 Pitch Bending;
#X obj 489 -3763 +~;
#X text 794 -3901 Amplitude scaling of the LFO;
#X text 518 -3764 Corrected base frequency + vibration;
#X text 192 -4412 Computes fBase \, considering fRatio \, fFine \,
pitch bend wheel \, mod wheel vibrato;
#X obj 783 -3864 r \$1-mw_vibrato.s;
#X obj 783 -3841 r \$1-mw_vibrato.r;
#X text 794 -3819 Toggling vibrato (ON/OFF);
#X obj 912 -4224 ftom;
#X obj 977 -4171 +;
#X obj 977 -4306 r 1-mw_lfo_max_a.s;
#X obj 977 -4285 r 1-mw_lfo_max_a.r;
#X text 977 -4327 Vibrato depth;
#X obj 977 -4224 t b f;
#X obj 912 -4171 -;
#X obj 912 -4139 mtof;
#X obj 977 -4139 mtof;
#X obj 977 -4075 -;
#X obj 977 -4107 t b f;
#X text 1005 -4074 range;
#X obj 768 -4000 receive~ mw_lfo_vibrato;
#X floatatom 989 -4044 5 0 0 0 - - -, f 5;
#X floatatom 527 -3938 5 0 0 0 - - -, f 5;
#X obj 652 -3825 spigot~;
#X connect 2 0 17 0;
#X connect 2 0 28 0;
#X connect 4 0 6 0;
#X connect 4 0 10 1;
#X connect 5 0 6 0;
#X connect 5 0 10 1;
#X connect 6 0 10 0;
#X connect 7 0 21 1;
#X connect 7 0 42 0;
#X connect 8 0 43 0;
#X connect 10 0 7 0;
#X connect 14 0 17 0;
#X connect 14 1 17 1;
#X connect 15 0 14 0;
#X connect 16 0 14 0;
#X connect 17 0 10 0;
#X connect 21 0 13 0;
#X connect 25 0 43 1;
#X connect 26 0 43 1;
#X connect 28 0 34 0;
#X connect 28 0 29 0;
#X connect 29 0 36 0;
#X connect 30 0 33 0;
#X connect 31 0 33 0;
#X connect 33 0 34 0;
#X connect 33 0 29 0;
#X connect 33 1 29 1;
#X connect 33 1 34 1;
#X connect 34 0 35 0;
#X connect 35 0 37 0;
#X connect 36 0 38 0;
#X connect 37 0 8 1;
#X connect 37 0 41 0;
#X connect 38 0 37 0;
#X connect 38 1 37 1;
#X connect 40 0 8 0;
#X connect 43 1 21 0;
#X restore 357 216 pd fBase;
#X text 1473 119 fRatio (fBase/fMain ratio) acts as a multiplier (amplifier)
for the incoming modulator signal if it's in sync with main frequency
(option SCALE WITH OUTPUT FREQ.). \; It also acts as a multiplier
for the main frequency of the oscillator \, which is the note frequency.
;
#X obj 124 537 receive~ mw_lfo;
#X text 204 575 $v1;
#X text 264 575 $f2;
#X text 228 492 OP ON?;
#X text 321 474 OP level;
#X text 124 518 Modwheel LFO;
#X text 206 609 Operator output scaling \, amplitude envelope and tremolo
;
#X text 324 575 $f3;
#X obj 228 513 r \$1-active.r;
#X obj 321 493 r \$1-level.r;
#X obj 416 512 r \$1-mw_tremolo.s;
#X obj 416 493 r \$1-mw_tremolo.r;
#X obj 199 591 expr~ $f2*(($f4*$v1 + 1-$f4) * $f3 * $v5);
#X text 416 473 Tremolo ON?;
#X text 388 575 $f4;
#X text 454 575 $v5;
#X floatatom 335 553 5 0 0 0 - - -, f 5;
#X floatatom 423 559 5 0 0 0 - - -, f 5;
#X floatatom 267 557 5 0 0 0 - - -, f 5;
#X text 572 296 $v6;
#X text 497 306 $f5;
#X text 363 299 $v4;
#X text 287 301 $f3;
#X text 182 301 $f2;
#X text 165 219 Modulator (Input) scaling;
#X text 452 228 Feedback Scaling;
#X text 361 189 Base frequency;
#X obj 42 368 expr~ ($f2)*$v4*$v1 + (1-$f2)*$f3*$v1 + $v4 + $f5*$v6
, f 88;
#X connect 15 0 36 0;
#X connect 18 0 125 4;
#X connect 24 0 140 0;
#X connect 28 0 111 0;
#X connect 29 0 18 0;
#X connect 29 0 50 0;
#X connect 31 0 32 0;
#X connect 32 0 33 0;
#X connect 33 0 92 0;
#X connect 36 0 17 0;
#X connect 36 0 48 0;
#X connect 39 0 125 2;
#X connect 39 0 129 0;
#X connect 40 1 43 0;
#X connect 41 0 140 2;
#X connect 41 1 44 0;
#X connect 43 0 140 1;
#X connect 47 1 52 0;
#X connect 47 1 111 0;
#X connect 47 2 18 0;
#X connect 47 2 51 0;
#X connect 49 0 45 0;
#X connect 57 0 140 4;
#X connect 57 1 58 0;
#X connect 65 0 140 5;
#X connect 80 0 81 0;
#X connect 81 0 90 0;
#X connect 82 0 83 0;
#X connect 83 0 85 0;
#X connect 86 0 40 0;
#X connect 87 0 40 0;
#X connect 88 0 41 0;
#X connect 89 0 41 0;
#X connect 91 0 39 0;
#X connect 93 0 125 1;
#X connect 93 0 131 0;
#X connect 94 0 57 0;
#X connect 95 0 57 0;
#X connect 96 0 59 0;
#X connect 97 0 63 0;
#X connect 98 0 63 0;
#X connect 99 0 59 0;
#X connect 111 0 140 3;
#X connect 113 0 125 0;
#X connect 121 0 125 1;
#X connect 121 0 131 0;
#X connect 122 0 39 0;
#X connect 123 0 125 3;
#X connect 123 0 130 0;
#X connect 124 0 125 3;
#X connect 124 0 130 0;
#X connect 125 0 36 1;
#X connect 140 0 15 0;
#X coords 0 -1 1 1 230 531 1 609 309;
