#N canvas 872 181 979 671 10;
#X text 7 1 pitchbendwheel.pd;
#X text 6 15 Accepts a frequency as an input \, scales it according
to the current value of the bending wheel;
#X obj 99 160 bendin;
#X obj 237 487 outlet;
#X text 247 49 (C) 2018 Frash Pikass;
#X obj 235 95 inlet;
#X obj 457 97 r 1-pw_depth.s;
#X obj 457 118 r 1-pw_depth.r;
#X text 457 74 Max pitch bend depth in semitones;
#X floatatom 457 139 5 0 0 0 - - -, f 5;
#X obj 457 249 f;
#X obj 236 355 expr ($f1/8192)*$f2+$f3;
#X obj 235 198 t b f b;
#X obj 236 413 mtof;
#X obj 457 198 t b f;
#X text 99 143 Pitch bend wheel;
#X text 235 74 The main frequency in MIDI;
#X connect 2 0 11 0;
#X connect 5 0 12 0;
#X connect 6 0 9 0;
#X connect 7 0 9 0;
#X connect 9 0 14 0;
#X connect 10 0 11 1;
#X connect 11 0 13 0;
#X connect 12 0 11 0;
#X connect 12 1 11 2;
#X connect 12 2 10 0;
#X connect 13 0 3 0;
#X connect 14 0 11 0;
#X connect 14 1 10 1;
