#N canvas 1106 347 450 300 10;
#X obj 34 89 inlet;
#X text 29 62 A frequency in Hz;
#X text 7 1 pitchbendwheel.pd;
#X text 20 14 Accepts a frequency as an input \, scales it according
to the current value of the bending wheel;
#X obj 115 100 bendin;
#X obj 115 130 / 8192;
#X obj 115 180 *;
#X obj 34 232 +;
#X obj 34 130 t b b f f;
#X obj 34 254 outlet;
#X text 247 49 (C) 2018 Frash Pikass;
#X connect 0 0 8 0;
#X connect 4 0 5 0;
#X connect 5 0 6 0;
#X connect 6 0 7 0;
#X connect 7 0 9 0;
#X connect 8 0 7 0;
#X connect 8 1 6 0;
#X connect 8 2 7 1;
#X connect 8 3 6 1;
